<svg width="94" height="74" viewBox="0 0 94 74" fill="none" xmlns="http://www.w3.org/2000/svg">
<path d="M9.73171 4.59184L0 15.3061L32 49.5L63 15.3061L53.2683 4.59184L41.4878 0H21.5122L9.73171 4.59184Z" transform="translate(17 23)" fill="white" stroke="#536170"/>
<path d="M0 11L15 18M15 18H48M15 18L21.5 5.5M15 18L32 44.5L48 18M48 18L63 11M48 18L41.5 5.5M10 0L21.5 5.5M21.5 5.5H41.5M41.5 5.5L53 0" transform="translate(17 27.5)" stroke="#536170"/>
<path d="M6.40321 3.94745C3.76638 4.33216 3.51376 4.64411 3.20152 7.89491C2.88961 4.64411 2.6365 4.332 3.07382e-07 3.94745C2.6365 3.56258 2.88961 3.2508 3.20152 -1.9478e-08C3.51376 3.2508 3.76638 3.56258 6.40321 3.94745Z" transform="translate(19.9211 18.7117)" fill="#C5D1DE"/>
<path d="M9.72414 5.70103C5.71976 6.25664 5.33613 6.70716 4.86195 11.4021C4.38826 6.70716 4.00388 6.25641 4.66801e-07 5.70103C4.00388 5.14519 4.38826 4.6949 4.86195 -2.81307e-08C5.33613 4.6949 5.71976 5.14519 9.72414 5.70103Z" transform="translate(47.8103)" fill="#C5D1DE"/>
<rect width="1.57721" height="1.57721" transform="translate(12.0518 42.3528) scale(0.995616 1.00436) rotate(45)" fill="#C5D1DE"/>
<path fill-rule="evenodd" clip-rule="evenodd" d="M8.18164 20.0962C8.97961 11.8213 9.62524 11.0273 16.3638 10.0481C9.62524 9.06836 8.97961 8.27466 8.18164 0C7.38452 8.27466 6.73767 9.06836 0 10.0481C6.73767 11.0269 7.38452 11.8213 8.18164 20.0962ZM9.56165 10.2058L7.98242 8.61279L6.4032 10.2058L7.98242 11.7991L9.56165 10.2058Z" transform="translate(9.495 2.44336)" fill="#C5D1DE"/>
<path fill-rule="evenodd" clip-rule="evenodd" d="M6.04736 15.072C6.63708 8.86597 7.11426 8.27051 12.095 7.53613C7.11426 6.80127 6.63708 6.20605 6.04736 0C5.45813 6.20605 4.9801 6.80127 0 7.53613C4.9801 8.27026 5.45813 8.86597 6.04736 15.072ZM7.20093 7.57959L6.09058 6.45947L4.98022 7.57959L6.09058 8.69971L7.20093 7.57959Z" transform="translate(0 42.3962)" fill="#C5D1DE"/>
<rect width="1.57719" height="1.57719" transform="translate(92.8896 57.1531) scale(0.995616 1.00436) rotate(45)" fill="#C5D1DE"/>
<path fill-rule="evenodd" clip-rule="evenodd" d="M7.1145 17.9429C7.80835 10.5547 8.36975 9.8457 14.2294 8.97144C8.36975 8.09668 7.80835 7.38818 7.1145 0C6.42139 7.38818 5.85889 8.09668 0 8.97144C5.85889 9.84546 6.42139 10.5547 7.1145 17.9429ZM8.47168 9.02319L7.16541 7.6897L5.85913 9.02319L7.16541 10.3567L8.47168 9.02319Z" transform="translate(78.9729 43.114)" fill="#C5D1DE"/>
<rect width="1.57719" height="1.57719" transform="translate(72.9685 11.937) scale(0.995616 1.00436) rotate(45)" fill="#C5D1DE"/>
<path fill-rule="evenodd" clip-rule="evenodd" d="M6.04736 15.072C6.63708 8.86597 7.11426 8.27051 12.095 7.53613C7.11426 6.80127 6.63708 6.20605 6.04736 0C5.45813 6.20605 4.9801 6.80127 0 7.53613C4.9801 8.27026 5.45813 8.86597 6.04736 15.072ZM7.20093 7.57959L6.09058 6.45947L4.98022 7.57959L6.09058 8.69971L7.20093 7.57959Z" transform="translate(74.7041 12.2522)" fill="#C5D1DE"/>
</svg>
